<svg width="27" height="28" viewBox="0 0 27 28" fill="none" xmlns="http://www.w3.org/2000/svg">
<path d="M13.2442 2.39941C10.8301 2.40226 8.51581 3.36249 6.80884 5.06946C5.10188 6.77642 4.14165 9.09075 4.1388 11.5048C4.13591 13.4775 4.7803 15.3967 5.97312 16.968C5.97312 16.968 6.22145 17.2949 6.26201 17.3421L13.2442 25.5767L20.2296 17.338C20.266 17.2941 20.5152 16.968 20.5152 16.968L20.516 16.9655C21.7082 15.3949 22.3523 13.4766 22.3495 11.5048C22.3467 9.09075 21.3864 6.77642 19.6795 5.06946C17.9725 3.36249 15.6582 2.40226 13.2442 2.39941ZM13.2442 14.8158C12.5893 14.8158 11.9491 14.6216 11.4046 14.2578C10.8601 13.894 10.4358 13.3769 10.1852 12.7718C9.93455 12.1668 9.86898 11.5011 9.99674 10.8588C10.1245 10.2165 10.4398 9.62657 10.9029 9.16351C11.366 8.70045 11.9559 8.38511 12.5982 8.25735C13.2405 8.12959 13.9062 8.19516 14.5112 8.44577C15.1162 8.69637 15.6334 9.12076 15.9972 9.66525C16.361 10.2097 16.5552 10.8499 16.5552 11.5048C16.5541 12.3826 16.2049 13.2241 15.5842 13.8448C14.9635 14.4655 14.122 14.8147 13.2442 14.8158Z" fill="white"/>
</svg>
